<svg width="170" height="35" viewBox="0 0 170 35" fill="none" xmlns="http://www.w3.org/2000/svg">
<g id="forgstream.b0ad45ecd850 1" clip-path="url(#clip0_1_323)">
<g id="Clip path group">
<mask id="mask0_1_323" style="mask-type:luminance" maskUnits="userSpaceOnUse" x="0" y="0" width="170" height="35">
<g id="clip0">
<path id="path148" d="M0 0H170V35H0V0Z" fill="white" style="fill:white;fill:white;fill-opacity:1;"/>
</g>
</mask>
<g mask="url(#mask0_1_323)">
<g id="Group">
<path id="Vector" fill-rule="evenodd" clip-rule="evenodd" d="M58.453 11.035C58.595 7.319 61.367 5.19 63.917 5.202C66.867 5.116 69.488 7.75 69.448 11.04L69.5 24.145L66.69 23.522L66.687 11.038C66.656 9.243 65.377 8.198 63.913 8.148C62.573 8.193 61.317 9.258 61.261 11.035L61.242 24.073L58.484 24.097L58.453 11.035Z" fill="white" style="fill:white;fill:white;fill-opacity:1;"/>
<path id="Vector_2" fill-rule="evenodd" clip-rule="evenodd" d="M58.473 24.0969C58.537 27.8129 61.386 29.9419 63.937 29.9299C66.885 30.0159 69.531 27.3819 69.49 24.0929L69.457 19.8299L66.687 21.2599L66.69 24.0939C66.66 25.8899 65.396 26.9339 63.932 26.9839C62.592 26.9389 61.336 25.8739 61.28 24.0969L61.215 11.0519L58.504 11.0349L58.473 24.0969ZM72.868 24.1649C73.009 27.8819 75.781 30.0099 78.331 29.9979C81.281 30.0839 83.903 27.4499 83.863 24.1609L83.883 18.8249L83.893 15.7889L77.428 14.9869L77.716 17.4869L81.099 18.7309L81.103 19.6569L81.101 24.1619C81.07 25.9579 79.791 27.0019 78.327 27.0519C76.987 27.0069 75.731 25.9419 75.676 24.1649L75.656 11.1279L72.899 11.1029L72.868 24.1649Z" fill="white" style="fill:white;fill:white;fill-opacity:1;"/>
<path id="Vector_3" fill-rule="evenodd" clip-rule="evenodd" d="M72.879 10.578C72.967 9.396 73.655 6.299 77.164 5.346C77.524 5.261 78.017 5.191 78.389 5.2L83.807 5.553L83.197 8.158C82.302 8.128 79.732 8.162 78.244 8.156C77.208 8.224 75.715 9.003 75.65 11.034L75.636 22.902L72.879 22.51V10.578ZM45 10.578C45.088 9.396 45.776 6.299 49.285 5.346C49.6863 5.2499 50.0974 5.20091 50.51 5.2L55.928 5.553L55.318 8.158C54.423 8.128 51.853 8.162 50.364 8.156C49.329 8.224 47.836 9.003 47.771 11.032L47.757 29.878H45V10.578Z" fill="white" style="fill:white;fill:white;fill-opacity:1;"/>
<path id="Vector_4" fill-rule="evenodd" clip-rule="evenodd" d="M45.466 15.6419L55.304 15.9019L55.238 18.4459L45.466 18.7059V15.6419ZM102.648 29.9469H105.421V7.71289H102.648V29.9469Z" fill="white" style="fill:white;fill:white;fill-opacity:1;"/>
<path id="Vector_5" fill-rule="evenodd" clip-rule="evenodd" d="M109.527 8.06593V5.12993H98.497V8.06493H109.527V8.06593ZM125.705 10.5049C125.793 9.32493 126.481 6.22693 129.99 5.27493C130.391 5.17917 130.802 5.12984 131.215 5.12793L136.632 5.48093L136.023 8.08693C135.128 8.05493 132.558 8.09093 131.07 8.08393C130.033 8.15293 128.541 8.93193 128.476 10.9609L128.468 21.7979L127.724 22.3509L126.888 22.2989L125.705 22.2149V10.5049Z" fill="white" style="fill:white;fill:white;fill-opacity:1;"/>
<path id="Vector_6" fill-rule="evenodd" clip-rule="evenodd" d="M126.236 15.5791L136.075 15.8391L136.009 18.3831L126.236 18.6431V15.5791Z" fill="white" style="fill:white;fill:white;fill-opacity:1;"/>
<path id="Vector_7" fill-rule="evenodd" clip-rule="evenodd" d="M125.698 24.5224C125.785 25.7044 126.474 28.8014 129.982 29.7544C130.343 29.8394 130.835 29.9094 131.207 29.9014L136.626 29.5474L136.016 26.9424C135.121 26.9724 132.551 26.9384 131.062 26.9444C130.025 26.8764 128.534 26.0974 128.468 24.0674L128.46 13.2304L127.716 12.6774L126.88 12.7294L125.698 12.8144V24.5224ZM154.205 10.4484C154.291 9.26643 154.31 6.14543 158.096 5.13543C160.098 4.68243 163.109 6.46143 163.36 9.50343L161.803 13.9274C161.678 13.7344 161.597 7.94243 159.022 7.96043C158.604 7.95311 158.193 8.07788 157.85 8.31701C157.507 8.55614 157.247 8.89746 157.109 9.29243C156.953 9.71843 156.974 10.2554 156.975 10.9034L156.946 29.7004L154.212 29.6754L154.205 10.4484Z" fill="white" style="fill:white;fill:white;fill-opacity:1;"/>
<path id="Vector_8" fill-rule="evenodd" clip-rule="evenodd" d="M170 10.4151C169.912 9.23407 169.893 6.11307 166.109 5.10207C163.99 4.52806 161.094 6.42807 160.845 9.47007L162.402 13.8951C162.526 13.7011 162.608 7.91006 165.182 7.92806C166.022 7.91906 166.789 8.41807 167.096 9.26007C167.25 9.68507 167.23 10.2231 167.228 10.8701L167.243 29.7161H170V10.4151Z" fill="white" style="fill:white;fill:white;fill-opacity:1;"/>
<path id="Vector_9" fill-rule="evenodd" clip-rule="evenodd" d="M160.662 8.02358L161.001 18.4996L163.373 18.4866L163.712 8.08858L160.662 8.02358ZM86.2249 10.5696C86.2779 9.37858 86.8609 6.30658 90.3389 5.23058C90.6989 5.13358 91.2059 5.03758 91.5789 5.03358C94.9549 4.96158 97.2459 7.78158 97.2259 10.8566L97.2139 12.6536L94.5299 12.6556L94.4299 10.6216C94.3399 8.80158 92.7419 7.92058 91.5329 8.01958C90.4989 8.12258 89.0439 8.88958 89.0389 10.9346C89.0319 12.1146 89.1669 12.6446 90.9229 14.5386L95.7629 19.6306C99.7129 24.0256 96.5269 29.8986 92.3629 29.9716C88.2549 30.0446 86.7359 26.7016 86.6149 24.8806L86.5659 24.1476L87.7939 23.8106C87.8759 23.7886 87.1949 23.8466 88.3289 23.6606C88.2639 25.7536 88.9109 23.2606 89.2969 24.6456C89.6579 25.9466 90.4369 26.8076 92.0419 26.9876C93.3209 26.9396 94.5209 26.0346 94.7329 24.3256C94.9449 22.7646 93.3529 21.4556 91.7509 19.7716C90.1859 18.1266 88.6339 16.2216 87.7829 15.2456C86.8649 14.0956 86.0969 12.8396 86.2249 10.5696Z" fill="white" style="fill:white;fill:white;fill-opacity:1;"/>
<path id="Vector_10" fill-rule="evenodd" clip-rule="evenodd" d="M97.566 24.4414C97.514 25.6334 96.931 28.7044 93.452 29.7794C93.094 29.8774 92.585 29.9744 92.213 29.9774C88.836 30.0484 86.314 27.2214 86.535 24.1554L86.585 21.2854L89.359 21.2874L89.385 24.3804C89.399 26.2044 91.051 27.0904 92.259 26.9904C93.293 26.8884 94.747 26.1204 94.753 24.0774C94.76 22.8964 94.624 22.3674 92.868 20.4724C91.495 19.0264 86.609 10.0214 91.161 14.7784C92.205 15.8684 93.866 17.3084 96.008 19.7654C96.927 20.9154 97.695 22.1714 97.566 24.4414ZM139.522 10.9044C139.665 7.18836 142.479 5.05836 145.068 5.07036C148.061 4.98536 150.723 7.61836 150.683 10.9084L150.547 29.7744L147.841 29.7784L147.878 10.9074C147.847 9.11136 146.549 8.06736 145.063 8.01736C143.703 8.06136 142.428 9.12736 142.372 10.9044L142.494 29.7644L139.666 29.7674L139.522 10.9044Z" fill="white" style="fill:white;fill:white;fill-opacity:1;"/>
<path id="Vector_11" fill-rule="evenodd" clip-rule="evenodd" d="M149.961 18.5763V15.6403H140.458V18.5753L149.961 18.5763ZM111.151 29.8723H113.924V13.6523H111.151V29.8723Z" fill="white" style="fill:white;fill:white;fill-opacity:1;"/>
<path id="Vector_12" fill-rule="evenodd" clip-rule="evenodd" d="M111.144 10.9775C111.285 7.23746 114.057 5.09746 116.607 5.10746C119.556 5.02246 122.178 7.67246 122.138 10.9805L122.074 12.2765L119.504 16.1255L119.376 10.9795C119.345 9.17346 118.067 8.12246 116.603 8.07246C115.263 8.11746 114.007 9.18846 113.951 10.9775L113.932 24.0915L111.175 24.1165L111.144 10.9765V10.9775Z" fill="white" style="fill:white;fill:white;fill-opacity:1;"/>
<path id="Vector_13" fill-rule="evenodd" clip-rule="evenodd" d="M114.053 16.399C114.836 15.9265 115.732 15.6746 116.646 15.67C119.595 15.584 122.217 18.234 122.177 21.542L122.167 29.872L119.48 29.869L119.415 21.541C119.384 19.735 118.106 18.684 116.642 18.634L113.805 18.653L112.137 18.738C110.896 14.793 111.041 18.186 114.053 16.399Z" fill="white" style="fill:white;fill:white;fill-opacity:1;"/>
<path id="Vector_14" fill-rule="evenodd" clip-rule="evenodd" d="M111.297 12.7769C111.439 16.5169 113.995 18.6569 116.546 18.6469C119.495 18.7319 122.117 16.0829 122.077 12.7739L122.105 11.1839L119.442 7.62891L119.314 12.7749C119.283 14.5809 118.005 15.6319 116.542 15.6819L113.889 15.7059C113.253 15.7129 113.915 13.6159 113.889 12.7769L113.884 8.95691L113.839 8.29691L111.944 11.1299L111.297 12.7769Z" fill="white" style="fill:white;fill:white;fill-opacity:1;"/>
<path id="Vector_15" fill-rule="evenodd" clip-rule="evenodd" d="M120.592 10.273L122.14 10.966L122.072 13.002L120.592 13.292V10.273ZM58.453 11.035C58.595 7.319 61.367 5.19 63.917 5.202C66.867 5.116 69.488 7.75 69.448 11.04L69.5 24.145L66.69 23.522L66.687 11.038C66.656 9.243 65.377 8.198 63.913 8.148C62.573 8.193 61.317 9.258 61.261 11.035L61.242 24.073L58.484 24.097L58.453 11.035Z" fill="white" style="fill:white;fill:white;fill-opacity:1;"/>
<path id="Vector_16" fill-rule="evenodd" clip-rule="evenodd" d="M58.473 24.0969C58.537 27.8129 61.386 29.9419 63.937 29.9299C66.885 30.0159 69.531 27.3819 69.49 24.0929L69.457 19.8299L66.687 21.2599L66.69 24.0939C66.66 25.8899 65.396 26.9339 63.932 26.9839C62.592 26.9389 61.336 25.8739 61.28 24.0969L61.215 11.0519L58.504 11.0349L58.473 24.0969ZM72.868 24.1649C73.009 27.8819 75.781 30.0099 78.331 29.9979C81.281 30.0839 83.903 27.4499 83.863 24.1609L83.883 18.8249L83.893 15.7889L77.428 14.9869L77.716 17.4869L81.099 18.7309L81.103 19.6569L81.101 24.1619C81.07 25.9579 79.791 27.0019 78.327 27.0519C76.987 27.0069 75.731 25.9419 75.676 24.1649L75.656 11.1279L72.899 11.1029L72.868 24.1649Z" fill="white" style="fill:white;fill:white;fill-opacity:1;"/>
<path id="Vector_17" fill-rule="evenodd" clip-rule="evenodd" d="M72.879 10.578C72.967 9.396 73.655 6.299 77.164 5.346C77.524 5.261 78.017 5.191 78.389 5.2L83.807 5.553L83.197 8.158C82.302 8.128 79.732 8.162 78.244 8.156C77.208 8.224 75.715 9.003 75.65 11.034L75.636 22.902L72.879 22.51V10.578ZM102.648 29.947H105.421V7.713H102.648V29.947Z" fill="white" style="fill:white;fill:white;fill-opacity:1;"/>
<path id="Vector_18" fill-rule="evenodd" clip-rule="evenodd" d="M109.527 8.06593V5.12993H98.497V8.06493H109.527V8.06593ZM125.705 10.5049C125.793 9.32493 126.481 6.22693 129.99 5.27493C130.391 5.17917 130.802 5.12984 131.215 5.12793L136.632 5.48093L136.023 8.08693C135.128 8.05493 132.558 8.09093 131.07 8.08393C130.033 8.15293 128.541 8.93193 128.476 10.9609L128.468 21.7979L127.724 22.3509L126.888 22.2989L125.705 22.2149V10.5049Z" fill="white" style="fill:white;fill:white;fill-opacity:1;"/>
<path id="Vector_19" fill-rule="evenodd" clip-rule="evenodd" d="M126.236 15.5791L136.075 15.8391L136.009 18.3831L126.236 18.6431V15.5791Z" fill="white" style="fill:white;fill:white;fill-opacity:1;"/>
<path id="Vector_20" fill-rule="evenodd" clip-rule="evenodd" d="M125.698 24.5224C125.785 25.7044 126.474 28.8014 129.982 29.7544C130.343 29.8394 130.835 29.9094 131.207 29.9014L136.626 29.5474L136.016 26.9424C135.121 26.9724 132.551 26.9384 131.062 26.9444C130.025 26.8764 128.534 26.0974 128.468 24.0674L128.46 13.2304L127.716 12.6774L126.88 12.7294L125.698 12.8144V24.5224ZM154.205 10.4484C154.291 9.26643 154.31 6.14543 158.096 5.13543C160.098 4.68243 163.109 6.46143 163.36 9.50343L161.803 13.9274C161.678 13.7344 161.597 7.94243 159.022 7.96043C158.604 7.95311 158.193 8.07788 157.85 8.31701C157.507 8.55614 157.247 8.89746 157.109 9.29243C156.953 9.71843 156.974 10.2554 156.975 10.9034L156.946 29.7004L154.212 29.6754L154.205 10.4484Z" fill="white" style="fill:white;fill:white;fill-opacity:1;"/>
<path id="Vector_21" fill-rule="evenodd" clip-rule="evenodd" d="M170 10.4151C169.912 9.23407 169.893 6.11307 166.109 5.10207C163.99 4.52806 161.094 6.42807 160.845 9.47007L162.402 13.8951C162.526 13.7011 162.608 7.91006 165.182 7.92806C166.022 7.91906 166.789 8.41807 167.096 9.26007C167.25 9.68507 167.23 10.2231 167.228 10.8701L167.243 29.7161H170V10.4151Z" fill="white" style="fill:white;fill:white;fill-opacity:1;"/>
<path id="Vector_22" fill-rule="evenodd" clip-rule="evenodd" d="M160.662 8.02358L161.001 18.4996L163.373 18.4866L163.712 8.08858L160.662 8.02358ZM86.2249 10.5696C86.2779 9.37858 86.8609 6.30658 90.3389 5.23058C90.6989 5.13358 91.2059 5.03758 91.5789 5.03358C94.9549 4.96158 97.2459 7.78158 97.2259 10.8566L97.2139 12.6536L94.5299 12.6556L94.4299 10.6216C94.3399 8.80158 92.7419 7.92058 91.5329 8.01958C90.4989 8.12258 89.0439 8.88958 89.0389 10.9346C89.0319 12.1146 89.1669 12.6446 90.9229 14.5386L95.7629 19.6306C99.7129 24.0256 96.5269 29.8986 92.3629 29.9716C88.2549 30.0446 86.7359 26.7016 86.6149 24.8806L86.5659 24.1476L87.7939 23.8106C87.8759 23.7886 87.1949 23.8466 88.3289 23.6606C88.2639 25.7536 88.9109 23.2606 89.2969 24.6456C89.6579 25.9466 90.4369 26.8076 92.0419 26.9876C93.3209 26.9396 94.5209 26.0346 94.7329 24.3256C94.9449 22.7646 93.3529 21.4556 91.7509 19.7716C90.1859 18.1266 88.6339 16.2216 87.7829 15.2456C86.8649 14.0956 86.0969 12.8396 86.2249 10.5696Z" fill="white" style="fill:white;fill:white;fill-opacity:1;"/>
<path id="Vector_23" fill-rule="evenodd" clip-rule="evenodd" d="M97.566 24.4414C97.514 25.6334 96.931 28.7044 93.452 29.7794C93.094 29.8774 92.585 29.9744 92.213 29.9774C88.836 30.0484 86.314 27.2214 86.535 24.1554L86.585 21.2854L89.359 21.2874L89.385 24.3804C89.399 26.2044 91.051 27.0904 92.259 26.9904C93.293 26.8884 94.747 26.1204 94.753 24.0774C94.76 22.8964 94.624 22.3674 92.868 20.4724C91.495 19.0264 86.609 10.0214 91.161 14.7784C92.205 15.8684 93.866 17.3084 96.008 19.7654C96.927 20.9154 97.695 22.1714 97.566 24.4414ZM139.522 10.9044C139.665 7.18836 142.479 5.05836 145.068 5.07036C148.061 4.98536 150.723 7.61836 150.683 10.9084L150.547 29.7744L147.841 29.7784L147.878 10.9074C147.847 9.11136 146.549 8.06736 145.063 8.01736C143.703 8.06136 142.428 9.12736 142.372 10.9044L142.494 29.7644L139.666 29.7674L139.522 10.9044Z" fill="white" style="fill:white;fill:white;fill-opacity:1;"/>
<path id="Vector_24" fill-rule="evenodd" clip-rule="evenodd" d="M149.961 18.5756V15.6396H140.458V18.5746L149.961 18.5756Z" fill="white" style="fill:white;fill:white;fill-opacity:1;"/>
<path id="Vector_25" fill-rule="evenodd" clip-rule="evenodd" d="M12.762 8.41992H15.872V11.5629H12.762V8.41992ZM15.947 8.42492H19.057V11.5669H15.947V8.42492ZM19.135 8.41992H22.245V11.5629H19.135V8.41992Z" fill="#1883FC" style="fill:#1883FC;fill:color(display-p3 0.0941 0.5137 0.9882);fill-opacity:1;"/>
<path id="Vector_26" fill-rule="evenodd" clip-rule="evenodd" d="M12.76 5.21289H22.25V14.7489H12.76V5.21289Z" fill="#1883FC" style="fill:#1883FC;fill:color(display-p3 0.0941 0.5137 0.9882);fill-opacity:1;"/>
<path id="Vector_27" fill-rule="evenodd" clip-rule="evenodd" d="M15.946 2H19.055V5.592H15.945V2H15.946ZM3.191 11.63H7.34V14.772H3.191V11.63ZM0.00500488 14.846H7.497V17.988H0.00500488V14.846ZM34.998 14.855H27.832V17.996H34.998V14.856V14.855Z" fill="#1883FC" style="fill:#1883FC;fill:color(display-p3 0.0941 0.5137 0.9882);fill-opacity:1;"/>
<path id="Vector_28" fill-rule="evenodd" clip-rule="evenodd" d="M3.19 11.571H6.569V21.207H3.189V11.571H3.19ZM27.147 17.13H31.81V21.209H27.147V17.13ZM25.515 11.64H28.625V14.782H25.515V11.64ZM9.566 5.20996H13.56V11.55H9.566V5.20996ZM14.396 5.21296H25.436V8.35496H14.396V5.21296Z" fill="#1883FC" style="fill:#1883FC;fill:color(display-p3 0.0941 0.5137 0.9882);fill-opacity:1;"/>
<path id="Vector_29" fill-rule="evenodd" clip-rule="evenodd" d="M6.302 8.2373H28.622V11.5673H6.302V8.2373Z" fill="#1883FC" style="fill:#1883FC;fill:color(display-p3 0.0941 0.5137 0.9882);fill-opacity:1;"/>
<path id="Vector_30" fill-rule="evenodd" clip-rule="evenodd" d="M6.38 8.429H9.49V11.571H6.38V8.429ZM9.564 2H12.674V6.081H9.564V2ZM22.323 2H25.433V6.923H22.323V2ZM25.515 14.856H28.624V17.998H25.514L25.515 14.856Z" fill="#1883FC" style="fill:#1883FC;fill:color(display-p3 0.0941 0.5137 0.9882);fill-opacity:1;"/>
<path id="Vector_31" fill-rule="evenodd" clip-rule="evenodd" d="M6.30497 8.3976H9.44797V21.2106H6.30497V8.3976ZM25.513 8.2666H28.623V21.2096H25.513V8.2666ZM3.22197 24.4966H9.48997V27.6386H3.21997V24.4966H3.22197Z" fill="#1883FC" style="fill:#1883FC;fill:color(display-p3 0.0941 0.5137 0.9882);fill-opacity:1;"/>
<path id="Vector_32" fill-rule="evenodd" clip-rule="evenodd" d="M3.19094 11.5244H6.35994V27.6394H3.18994V11.5234L3.19094 11.5244ZM25.5149 24.4954H31.7829V27.6374H25.5149V24.4954Z" fill="#1883FC" style="fill:#1883FC;fill:color(display-p3 0.0941 0.5137 0.9882);fill-opacity:1;"/>
<path id="Vector_33" fill-rule="evenodd" clip-rule="evenodd" d="M28.602 11.5359H31.812V27.6369H28.602V11.5359ZM6.381 27.3639H9.491V30.8549H6.38V27.3649L6.381 27.3639ZM9.48201 30.8559H12.684V33.9979H9.48201V30.8559Z" fill="#1883FC" style="fill:#1883FC;fill:color(display-p3 0.0941 0.5137 0.9882);fill-opacity:1;"/>
<path id="Vector_34" fill-rule="evenodd" clip-rule="evenodd" d="M25.5161 24.5264H28.6261V30.8674H25.5161V24.5274V24.5264Z" fill="#1883FC" style="fill:#1883FC;fill:color(display-p3 0.0941 0.5137 0.9882);fill-opacity:1;"/>
<path id="Vector_35" fill-rule="evenodd" clip-rule="evenodd" d="M22.367 30.8583H25.532V34.0003H22.367V30.8583ZM12.68 27.7143H22.37V30.8553H12.68V27.7143ZM0 21.2803H6.266V24.4233H0V21.2803ZM29.834 21.2853H35V24.4263H29.834V21.2853ZM15.944 21.2853H19.054V24.4263H15.944V21.2853Z" fill="#1883FC" style="fill:#1883FC;fill:color(display-p3 0.0941 0.5137 0.9882);fill-opacity:1;"/>
<path id="Vector_36" fill-rule="evenodd" clip-rule="evenodd" d="M16.11 5.29296V2.15796L18.887 2.16396L18.89 5.35396L22.456 5.34596L22.461 2.15796L25.251 2.16596L25.237 8.40396L28.424 8.42596L28.419 11.693L31.63 11.703L31.637 15.033L34.802 15.018L34.793 17.798L31.618 17.796L31.61 21.411L34.864 21.41L34.861 24.294L31.714 24.314L28.754 24.297L28.752 21.073L25.688 21.053L25.666 11.411L18.928 11.416L18.938 8.47696L16.103 8.48196L16.11 5.29296Z" fill="#1883FC" style="fill:#1883FC;fill:color(display-p3 0.0941 0.5137 0.9882);fill-opacity:1;"/>
</g>
</g>
</g>
</g>
<defs>
<clipPath id="clip0_1_323">
<rect width="170" height="35" fill="white" style="fill:white;fill:white;fill-opacity:1;"/>
</clipPath>
</defs>
</svg>
