<svg width="136" height="98" viewBox="0 0 136 98" fill="none" xmlns="http://www.w3.org/2000/svg">
<g id="Frame" clip-path="url(#clip0_1_206)">
<path id="Vector" d="M31.2554 83.4532C30.0451 84.6465 28.5807 85.5516 26.9713 86.1009C25.362 86.6502 23.6492 86.8296 21.9607 86.6257C20.2219 86.4141 18.5543 85.8092 17.0848 84.8571C15.6153 83.9051 14.3825 82.6308 13.4804 81.1313C12.3413 79.2749 11.7384 77.1401 11.7384 74.9629C11.7384 72.7857 12.3413 70.6509 13.4804 68.7945C14.3734 67.3102 15.59 66.0459 17.0396 65.0956C18.4892 64.1453 20.1346 63.5335 21.8536 63.3055C23.5191 63.0916 25.2113 63.2494 26.8084 63.7675C28.4055 64.2856 29.8676 65.151 31.0893 66.3015C31.6256 66.805 32.2561 67.1981 32.9446 67.4582C33.6331 67.7183 34.3662 67.8405 35.1019 67.8176C35.8377 67.7948 36.5618 67.6274 37.2328 67.325C37.9038 67.0226 38.5085 66.5912 39.0125 66.0554C39.5167 65.5197 39.9103 64.8902 40.1708 64.2026C40.4313 63.515 40.5536 62.7829 40.5307 62.0481C40.5078 61.3134 40.3402 60.5903 40.0374 59.9202C39.7346 59.2501 39.3026 58.6462 38.7661 58.1429C36.3396 55.8569 33.4347 54.1382 30.2613 53.1111C27.088 52.0841 23.7257 51.7744 20.4179 52.2045C14.8875 52.9578 9.82019 55.6939 6.16068 59.9027C2.50116 64.1115 0.499207 69.5056 0.528055 75.0796C0.556903 80.6535 2.61458 86.0267 6.31747 90.1975C10.0204 94.3683 15.1157 97.0519 20.6536 97.7481C21.5429 97.8508 22.4375 97.9027 23.3321 97.9032C29.2267 97.9085 34.888 95.6033 39.0982 91.4834C40.1488 90.4422 40.745 89.0287 40.757 87.5506C40.7691 86.0725 40.196 84.6496 39.1625 83.5914C38.1291 82.5333 36.7189 81.9256 35.239 81.9007C33.7591 81.8758 32.3292 82.4357 31.2607 83.4585M6.10357 45.1587L23.7821 45.1106C25.7825 45.1483 27.7704 44.7873 29.6295 44.0489C31.4886 43.3105 33.1817 42.2094 34.6097 40.8099C36.0377 39.4105 37.1721 37.7408 37.9465 35.8985C38.7208 34.0561 39.1197 32.0781 39.1197 30.0801C39.1197 28.082 38.7208 26.104 37.9465 24.2617C37.1721 22.4194 36.0377 20.7497 34.6097 19.3502C33.1817 17.9508 31.4886 16.8497 29.6295 16.1112C27.7704 15.3728 25.7825 15.0119 23.7821 15.0496H21.3286C19.8717 15.0946 18.4896 15.7041 17.475 16.7492C16.4604 17.7942 15.893 19.1926 15.893 20.6482C15.893 22.1038 16.4604 23.5022 17.475 24.5473C18.4896 25.5923 19.8717 26.2019 21.3286 26.2469H23.8196C24.4514 26.2466 25.0735 26.402 25.6307 26.6994C26.1879 26.9967 26.6631 27.4267 27.0141 27.9513C27.365 28.4758 27.581 29.0788 27.6428 29.7067C27.7045 30.3346 27.6102 30.968 27.3682 31.5508C27.0775 32.2516 26.5852 32.8507 25.9535 33.2722C25.3219 33.6936 24.5793 33.9186 23.8196 33.9186H11.7232V12.0911H26.5732C28.0301 12.0461 29.4122 11.4365 30.4268 10.3915C31.4414 9.34645 32.0088 7.94803 32.0088 6.49243C32.0088 5.03684 31.4414 3.63841 30.4268 2.59337C29.4122 1.54833 28.0301 0.938758 26.5732 0.893779H6.10357C4.61692 0.895197 3.19164 1.48596 2.14092 2.53626C1.0902 3.58656 0.499999 5.01047 0.5 6.49511V39.5574C0.499296 40.2927 0.643717 41.021 0.925008 41.7005C1.2063 42.3801 1.61894 42.9976 2.13935 43.5178C2.65976 44.038 3.27773 44.4507 3.95794 44.7322C4.63815 45.0138 5.36725 45.1587 6.10357 45.1587ZM61.3089 0.551386C60.5889 0.704544 59.9061 0.997832 59.2996 1.41451C58.693 1.83118 58.1746 2.36308 57.7739 2.97984C57.3732 3.59659 57.0981 4.28612 56.9642 5.00907C56.8303 5.73201 56.8404 6.4742 56.9937 7.19327C57.1471 7.91234 57.4408 8.59419 57.858 9.19991C58.2753 9.80563 58.8079 10.3234 59.4255 10.7235C60.0431 11.1237 60.7336 11.3984 61.4575 11.5321C62.1814 11.6658 62.9246 11.6558 63.6446 11.5026C65.9815 11.0235 68.4097 11.2809 70.5938 12.2393C72.778 13.1976 74.6102 14.8095 75.8375 16.8525C76.9753 18.7093 77.5774 20.844 77.5774 23.0209C77.5774 25.1978 76.9753 27.3325 75.8375 29.1893C74.8224 30.8869 73.3844 32.293 71.6636 33.2708C69.9428 34.2487 67.9977 34.7649 66.0179 34.7692C64.0392 34.7603 62.0965 34.2403 60.3786 33.2598C58.6607 32.2792 57.2261 30.8714 56.2143 29.1733C55.1555 27.4434 54.5587 25.4712 54.4809 23.4453C54.403 21.4193 54.8468 19.4073 55.7696 17.6015C56.4085 16.2891 56.5094 14.7796 56.0507 13.3941C55.592 12.0086 54.61 10.8566 53.3137 10.1832C52.0174 9.50974 50.5091 9.3681 49.1098 9.78838C47.7105 10.2087 46.5307 11.1577 45.8214 12.4335C44.0128 15.9171 43.1291 19.8058 43.2546 23.7278C43.3801 27.6498 44.5107 31.4742 46.5383 34.8354C48.5659 38.1966 51.4229 40.9824 54.8361 42.9265C58.2493 44.8706 62.1047 45.9081 66.0339 45.9398C70.1136 45.9014 74.1095 44.7788 77.6108 42.6874C81.1122 40.5961 83.9928 37.6113 85.9565 34.04C87.9203 30.4687 88.8963 26.4396 88.7844 22.3667C88.6725 18.2939 87.4766 14.3244 85.3196 10.866C82.8768 6.87825 79.2559 3.745 74.9558 1.89775C70.6557 0.050494 65.8879 -0.419888 61.3089 0.551386ZM97.9411 12.1927H109.218V39.5039C109.183 40.6334 109.49 41.7471 110.101 42.6986C110.711 43.6501 111.596 44.3949 112.638 44.8351C113.504 45.2015 114.449 45.3444 115.385 45.2507C116.321 45.1569 117.218 44.8295 117.995 44.2985C118.771 43.7675 119.401 43.05 119.826 42.2122C120.252 41.3743 120.46 40.443 120.43 39.5039V6.59676C120.43 5.86114 120.286 5.1327 120.004 4.45305C119.722 3.77341 119.309 3.15586 118.788 2.6357C118.267 2.11555 117.649 1.70296 116.968 1.42152C116.287 1.14007 115.558 0.995286 114.821 0.995427H97.9411C96.4842 1.04041 95.1021 1.64998 94.0875 2.69502C93.0729 3.74006 92.5055 5.13849 92.5055 6.59408C92.5055 8.04967 93.0729 9.4481 94.0875 10.4931C95.1021 11.5382 96.4842 12.1478 97.9411 12.1927Z" fill="white" style="fill:white;fill:white;fill-opacity:1;"/>
<path id="Vector_2" d="M71.1661 56.4792C70.7179 55.5078 70.0003 54.685 69.0983 54.1083C68.1964 53.5316 67.1478 53.2251 66.0768 53.2251C65.0058 53.2251 63.9572 53.5316 63.0552 54.1083C62.1533 54.685 61.4357 55.5078 60.9875 56.4792L45.9071 89.5469C45.6025 90.2176 45.4335 90.9418 45.4098 91.6779C45.386 92.414 45.5081 93.1475 45.7689 93.8364C46.0297 94.5254 46.4241 95.1561 46.9296 95.6924C47.435 96.2287 48.0415 96.6601 48.7143 96.9618C49.4434 97.2908 50.2341 97.462 51.0339 97.4647C52.111 97.4648 53.1652 97.1551 54.0706 96.5725C54.976 95.99 55.6942 95.1593 56.1393 94.1799L57.65 90.8576H63.6768C64.8845 90.8576 66.0427 90.3785 66.8966 89.5257C67.7506 88.6729 68.2304 87.5162 68.2304 86.3102C68.2304 85.1041 67.7506 83.9475 66.8966 83.0947C66.0427 82.2419 64.8845 81.7628 63.6768 81.7628H61.7429L66.0607 72.2881L76.0357 94.2066C76.4658 95.2595 77.2069 96.1564 78.1604 96.778C79.1138 97.3995 80.2343 97.7161 81.3725 97.6856C82.1281 97.6659 82.8719 97.4936 83.5591 97.1791C84.2462 96.8645 84.8624 96.4143 85.3705 95.8554C86.1367 95.0142 86.6279 93.9598 86.7786 92.8327C86.9294 91.7056 86.7325 90.5594 86.2143 89.5469L71.1661 56.4792Z" fill="#36A936" style="fill:#36A936;fill:color(display-p3 0.2118 0.6627 0.2118);fill-opacity:1;"/>
<path id="Vector_3" d="M130.48 86.1817V58.6833C130.48 57.2006 129.891 55.7785 128.843 54.7286C127.795 53.6786 126.372 53.0865 124.888 53.082L109.459 53.0499C107.985 53.0497 106.571 53.6289 105.521 54.662C104.471 55.6952 103.871 57.0994 103.85 58.571C103.818 61.1496 103.663 63.6641 103.395 66.0608C103.274 67.5133 103.724 68.9556 104.651 70.0817C105.577 71.2077 106.907 71.9288 108.357 72.0917C109.807 72.2547 111.264 71.8466 112.418 70.9543C113.572 70.062 114.332 68.7557 114.537 67.3127C114.652 66.3107 114.746 65.2942 114.821 64.2633H119.284V86.1175H109.641C110.134 85.0048 110.627 83.7903 111.104 82.4636C111.521 81.0879 111.392 79.6048 110.745 78.321C110.098 77.0372 108.981 76.0511 107.626 75.5666C106.271 75.082 104.781 75.1363 103.465 75.718C102.149 76.2997 101.107 77.3645 100.555 78.6919C99.6512 81.2986 98.4448 83.7908 96.9607 86.1175H95.9429C95.1921 86.0947 94.4443 86.2226 93.7439 86.4935C93.0435 86.7644 92.4046 87.1728 91.865 87.6947C91.1901 88.3489 90.6906 89.1621 90.4126 90.0594C90.1346 90.9568 90.0869 91.9095 90.274 92.8301C90.4611 93.7506 90.8769 94.6094 91.4832 95.3276C92.0895 96.0457 92.8668 96.6001 93.7437 96.9398C94.4445 97.2105 95.1918 97.3384 95.9429 97.3148H129.736C131.173 97.3425 132.565 96.8164 133.624 95.8458C134.414 95.1218 134.979 94.1864 135.252 93.1508C135.524 92.1153 135.493 91.0233 135.162 90.005C134.83 88.9866 134.213 88.0848 133.383 87.407C132.553 86.7291 131.546 86.3038 130.48 86.1817ZM129.837 12.0644C130.67 12.0623 131.493 11.8756 132.244 11.5177C132.996 11.1599 133.659 10.6399 134.186 9.99525C134.712 9.35057 135.089 8.59729 135.288 7.78971C135.488 6.98213 135.505 6.14039 135.34 5.32518C135.061 3.95739 134.283 2.74196 133.157 1.91524C132.031 1.08852 130.637 0.709602 129.247 0.852182C127.856 0.994761 126.569 1.64864 125.634 2.68667C124.7 3.72469 124.185 5.07266 124.191 6.46845C124.191 7.58241 124.523 8.67118 125.144 9.59661C125.765 10.522 126.647 11.2424 127.679 11.6664C128.363 11.9483 129.097 12.0928 129.837 12.0912V12.0644ZM128.536 5.10958V4.45155H130.143C130.483 4.45143 130.814 4.56837 131.078 4.7827C131.342 4.99703 131.525 5.2957 131.595 5.62852C131.616 5.72696 131.627 5.82754 131.627 5.92811C131.623 6.22605 131.525 6.51517 131.347 6.75435C131.169 6.99352 130.92 7.17055 130.636 7.26023C130.722 7.37078 130.831 7.46112 130.956 7.5249C131.081 7.58867 131.219 7.62434 131.359 7.62938H131.627V8.33021C131.534 8.32187 131.441 8.32187 131.348 8.33021C131.04 8.31529 130.743 8.21404 130.49 8.03804C130.237 7.86205 130.039 7.61844 129.918 7.33513H129.227V8.33021H128.536V5.10958Z" fill="white" style="fill:white;fill:white;fill-opacity:1;"/>
<path id="Vector_4" d="M130.079 6.6877H130.218C130.409 6.67213 130.587 6.58731 130.719 6.4493C130.851 6.31128 130.928 6.12963 130.936 5.93871C130.936 5.84736 130.92 5.7567 130.888 5.67122C130.82 5.51631 130.709 5.38383 130.569 5.28914C130.428 5.19444 130.264 5.14143 130.095 5.13623H129.2V6.6877H130.079Z" fill="#1D1D1B" style="fill:#1D1D1B;fill:color(display-p3 0.1137 0.1137 0.1059);fill-opacity:1;"/>
</g>
<defs>
<clipPath id="clip0_1_206">
<rect width="135" height="97.9029" fill="white" style="fill:white;fill:white;fill-opacity:1;" transform="translate(0.5 0.048584)"/>
</clipPath>
</defs>
</svg>
