<svg width="30" height="30" viewBox="0 0 30 30" fill="none" xmlns="http://www.w3.org/2000/svg">
<g id="ic:round-close">
<path id="Vector" d="M22.875 7.13729C22.7594 7.02141 22.622 6.92948 22.4708 6.86675C22.3196 6.80402 22.1575 6.77174 21.9938 6.77174C21.8301 6.77174 21.668 6.80402 21.5168 6.86675C21.3655 6.92948 21.2282 7.02141 21.1125 7.13729L15 13.2373L8.88754 7.12479C8.77181 7.00906 8.63442 6.91726 8.48321 6.85463C8.33201 6.792 8.16995 6.75977 8.00629 6.75977C7.84262 6.75977 7.68056 6.792 7.52936 6.85463C7.37815 6.91726 7.24076 7.00906 7.12504 7.12479C7.00931 7.24052 6.91751 7.37791 6.85488 7.52911C6.79225 7.68032 6.76001 7.84238 6.76001 8.00604C6.76001 8.1697 6.79225 8.33177 6.85488 8.48297C6.91751 8.63418 7.00931 8.77156 7.12504 8.88729L13.2375 14.9998L7.12504 21.1123C7.00931 21.228 6.91751 21.3654 6.85488 21.5166C6.79225 21.6678 6.76001 21.8299 6.76001 21.9935C6.76001 22.1572 6.79225 22.3193 6.85488 22.4705C6.91751 22.6217 7.00931 22.7591 7.12504 22.8748C7.24076 22.9905 7.37815 23.0823 7.52936 23.1449C7.68056 23.2076 7.84262 23.2398 8.00629 23.2398C8.16995 23.2398 8.33201 23.2076 8.48321 23.1449C8.63442 23.0823 8.77181 22.9905 8.88754 22.8748L15 16.7623L21.1125 22.8748C21.2283 22.9905 21.3656 23.0823 21.5169 23.1449C21.6681 23.2076 21.8301 23.2398 21.9938 23.2398C22.1574 23.2398 22.3195 23.2076 22.4707 23.1449C22.6219 23.0823 22.7593 22.9905 22.875 22.8748C22.9908 22.7591 23.0826 22.6217 23.1452 22.4705C23.2078 22.3193 23.2401 22.1572 23.2401 21.9935C23.2401 21.8299 23.2078 21.6678 23.1452 21.5166C23.0826 21.3654 22.9908 21.228 22.875 21.1123L16.7625 14.9998L22.875 8.88729C23.35 8.41229 23.35 7.61229 22.875 7.13729Z" fill="white" style="fill:white;fill-opacity:1;"/>
</g>
</svg>
