<svg width="225" height="225" viewBox="0 0 225 225" fill="none" xmlns="http://www.w3.org/2000/svg">
<g id="Frame 46" clip-path="url(#clip0_1_163)">
<g id="Vector">
<path d="M156.311 87.7923L233.3 132.221C233.781 132.493 233.781 132.768 233.3 133.045L195.332 154.881C195.098 155.02 194.864 155.02 194.63 154.881L117.441 110.452C117.15 110.288 116.859 110.288 116.568 110.452L78.496 132.354C78.2681 132.487 78.1542 132.682 78.1542 132.941V222.093C78.1542 222.428 78.0087 222.51 77.7176 222.339L39.4366 200.229C39.3041 200.151 39.1941 200.041 39.1175 199.908C39.0409 199.775 39.0004 199.624 39 199.471V110.632C38.9999 110.482 39.0393 110.335 39.1143 110.205C39.1893 110.076 39.2972 109.968 39.4271 109.893L192.532 21.6504C193.277 21.2243 194.121 21 194.979 21C195.836 21 196.678 21.2243 197.42 21.6504L350.658 109.95C350.886 110.083 351 110.281 351 110.547L350.829 199.509C350.829 199.888 350.665 200.175 350.336 200.371L312.387 222.235C312.336 222.263 312.279 222.278 312.22 222.277C312.162 222.276 312.105 222.26 312.055 222.23C312.005 222.2 311.964 222.158 311.936 222.107C311.907 222.057 311.893 222 311.893 221.941V133.093C311.893 132.942 311.852 132.794 311.776 132.663C311.699 132.532 311.589 132.422 311.457 132.345L195.399 65.502C195.12 65.3378 194.839 65.3378 194.554 65.502L156.311 87.5461C156.289 87.5586 156.271 87.5765 156.259 87.5981C156.246 87.6197 156.24 87.6442 156.24 87.6692C156.24 87.6942 156.246 87.7187 156.259 87.7403C156.271 87.7619 156.289 87.7798 156.311 87.7923Z" fill="url(#paint0_linear_1_163)" style=""/>
<path d="M116.777 289.324L116.976 155.762C116.976 155.301 117.176 155.187 117.574 155.421L155.542 177.276C155.839 177.446 155.988 177.702 155.988 178.043V311.813C155.988 311.966 156.028 312.115 156.103 312.246C156.178 312.378 156.285 312.486 156.415 312.561L194.544 334.52C194.835 334.69 195.127 334.69 195.418 334.52L233.385 312.627C233.676 312.457 233.822 312.204 233.822 311.87V268.085C233.822 267.737 233.673 267.649 233.376 267.819L195.437 289.627C195.127 289.81 194.972 289.722 194.972 289.362L195.009 245.681C195.01 245.449 195.07 245.222 195.185 245.021C195.3 244.821 195.465 244.653 195.664 244.535L233.442 222.718C233.651 222.598 233.756 222.415 233.756 222.169L233.974 178.024C233.98 177.683 234.129 177.427 234.42 177.257L272.511 155.355C272.557 155.326 272.609 155.311 272.663 155.31C272.716 155.309 272.77 155.323 272.817 155.35C272.864 155.377 272.904 155.416 272.932 155.463C272.96 155.511 272.975 155.565 272.976 155.62V289.134C272.976 289.576 273.169 289.687 273.555 289.466L350.336 245.311C350.652 245.128 350.81 245.22 350.81 245.586V289.352C350.81 289.769 350.63 290.085 350.269 290.299L197.534 378.315C196.759 378.764 195.877 379 194.979 379C194.081 379 193.197 378.764 192.418 378.315L39.5126 290.195C39.1709 289.999 39 289.706 39 289.314V245.662C39 245.176 39.212 245.056 39.636 245.302L116.464 289.513C116.673 289.633 116.777 289.57 116.777 289.324Z" fill="url(#paint1_linear_1_163)" style=""/>
</g>
</g>
<defs>
<linearGradient id="paint0_linear_1_163" x1="195" y1="21" x2="195" y2="379" gradientUnits="userSpaceOnUse">
<stop stop-color="#1883FC" style="stop-color:#1883FC;stop-color:color(display-p3 0.0941 0.5137 0.9882);stop-opacity:1;"/>
<stop offset="1" stop-color="white" stop-opacity="0" style="stop-color:none;stop-color:none;stop-opacity:0;"/>
</linearGradient>
<linearGradient id="paint1_linear_1_163" x1="195" y1="21" x2="195" y2="379" gradientUnits="userSpaceOnUse">
<stop stop-color="#1883FC" style="stop-color:#1883FC;stop-color:color(display-p3 0.0941 0.5137 0.9882);stop-opacity:1;"/>
<stop offset="1" stop-color="white" stop-opacity="0" style="stop-color:none;stop-color:none;stop-opacity:0;"/>
</linearGradient>
<clipPath id="clip0_1_163">
<rect width="225" height="225" fill="white" style="fill:white;fill:white;fill-opacity:1;"/>
</clipPath>
</defs>
</svg>
