<svg width="225" height="225" viewBox="0 0 225 225" fill="none" xmlns="http://www.w3.org/2000/svg">
<g id="Frame 46" clip-path="url(#clip0_1_153)">
<g id="Vector">
<path d="M46.3671 67.0532L106.33 101.678C106.704 101.89 106.704 102.104 106.33 102.32L76.7587 119.338C76.5764 119.446 76.394 119.446 76.2117 119.338L16.0938 84.7125C15.8671 84.5846 15.6403 84.5846 15.4136 84.7125L-14.2387 101.781C-14.4162 101.885 -14.5049 102.037 -14.5049 102.239V171.718C-14.5049 171.978 -14.6182 172.042 -14.8449 171.91L-44.6599 154.678C-44.7632 154.618 -44.8489 154.532 -44.9085 154.428C-44.9681 154.325 -44.9997 154.207 -45 154.088V84.8528C-45.0001 84.7361 -44.9694 84.6215 -44.911 84.5204C-44.8526 84.4194 -44.7685 84.3355 -44.6673 84.2771L74.5779 15.5069C75.1584 15.1748 75.8155 15 76.4835 15C77.1515 15 77.8072 15.1748 78.3851 15.5069L197.734 84.3214C197.911 84.4247 198 84.5797 198 84.7863L197.867 154.117C197.867 154.413 197.739 154.636 197.483 154.789L167.926 171.828C167.887 171.85 167.842 171.862 167.797 171.861C167.751 171.86 167.707 171.848 167.668 171.825C167.629 171.801 167.597 171.768 167.575 171.729C167.553 171.689 167.541 171.645 167.542 171.6V102.357C167.542 102.24 167.51 102.124 167.45 102.022C167.391 101.92 167.305 101.834 167.202 101.774L76.8105 49.6817C76.5936 49.5538 76.3743 49.5538 76.1525 49.6817L46.3671 66.8614C46.3502 66.8711 46.3362 66.885 46.3264 66.9019C46.3167 66.9187 46.3115 66.9378 46.3115 66.9573C46.3115 66.9767 46.3167 66.9958 46.3264 67.0127C46.3362 67.0295 46.3502 67.0435 46.3671 67.0532Z" fill="url(#paint0_linear_1_153)" style=""/>
<path d="M15.5763 224.113L15.7315 120.024C15.7315 119.665 15.8868 119.576 16.1973 119.758L45.7683 136.79C45.9999 136.923 46.1158 137.122 46.1158 137.388V241.639C46.1158 241.758 46.1465 241.875 46.2049 241.977C46.2633 242.079 46.3473 242.164 46.4484 242.222L76.1451 259.335C76.3719 259.468 76.5986 259.468 76.8253 259.335L106.396 242.274C106.623 242.141 106.736 241.944 106.736 241.683V207.56C106.736 207.29 106.621 207.221 106.389 207.354L76.8401 224.349C76.5986 224.492 76.4778 224.423 76.4778 224.142L76.5074 190.1C76.5077 189.92 76.5549 189.743 76.6443 189.587C76.7337 189.43 76.8623 189.299 77.0175 189.207L106.441 172.205C106.603 172.111 106.685 171.969 106.685 171.777L106.855 137.373C106.86 137.108 106.975 136.908 107.202 136.775L136.869 119.706C136.905 119.684 136.946 119.672 136.987 119.672C137.029 119.671 137.071 119.682 137.107 119.703C137.144 119.724 137.175 119.754 137.197 119.791C137.219 119.828 137.231 119.87 137.232 119.913V223.965C137.232 224.309 137.382 224.396 137.682 224.223L197.483 189.812C197.729 189.67 197.852 189.741 197.852 190.026V224.135C197.852 224.46 197.712 224.706 197.431 224.873L78.4739 293.466C77.8697 293.816 77.1831 294 76.4835 294C75.7839 294 75.096 293.816 74.4892 293.466L-44.6008 224.792C-44.8669 224.639 -45 224.41 -45 224.105V190.085C-45 189.707 -44.8349 189.613 -44.5047 189.805L15.3323 224.26C15.4949 224.354 15.5763 224.305 15.5763 224.113Z" fill="url(#paint1_linear_1_153)" style=""/>
</g>
</g>
<defs>
<linearGradient id="paint0_linear_1_153" x1="76.5" y1="15" x2="76.5" y2="294" gradientUnits="userSpaceOnUse">
<stop stop-color="white" stop-opacity="0.45" style="stop-color:white;stop-color:white;stop-opacity:0.45;"/>
<stop offset="1" stop-color="#1883FC" style="stop-color:#1883FC;stop-color:color(display-p3 0.0941 0.5137 0.9882);stop-opacity:1;"/>
</linearGradient>
<linearGradient id="paint1_linear_1_153" x1="76.5" y1="15" x2="76.5" y2="294" gradientUnits="userSpaceOnUse">
<stop stop-color="white" stop-opacity="0.45" style="stop-color:white;stop-color:white;stop-opacity:0.45;"/>
<stop offset="1" stop-color="#1883FC" style="stop-color:#1883FC;stop-color:color(display-p3 0.0941 0.5137 0.9882);stop-opacity:1;"/>
</linearGradient>
<clipPath id="clip0_1_153">
<rect width="225" height="225" fill="white" style="fill:white;fill:white;fill-opacity:1;"/>
</clipPath>
</defs>
</svg>
