<svg width="226" height="225" viewBox="0 0 226 225" fill="none" xmlns="http://www.w3.org/2000/svg">
<g id="Frame 46" clip-path="url(#clip0_1_158)">
<g id="Vector">
<path d="M77.6151 -13.5065L137.084 20.7462C137.456 20.9554 137.456 21.1671 137.084 21.3813L107.757 38.2156C107.576 38.3227 107.395 38.3227 107.214 38.2156L47.5909 3.96295C47.3661 3.83642 47.1412 3.83642 46.9164 3.96295L17.5081 20.8484C17.3321 20.9506 17.2441 21.1014 17.2441 21.301V90.0326C17.2441 90.2905 17.1317 90.3538 16.9069 90.2224L-12.6627 73.1764C-12.7651 73.1167 -12.8501 73.0314 -12.9093 72.929C-12.9684 72.8265 -12.9997 72.7105 -13 72.5924V4.10165C-13.0001 3.98624 -12.9696 3.87286 -12.9117 3.7729C-12.8538 3.67294 -12.7704 3.58994 -12.6701 3.53223L105.594 -64.4986C106.169 -64.8271 106.821 -65 107.484 -65C108.146 -65 108.796 -64.8271 109.37 -64.4986L227.736 3.57603C227.912 3.67823 228 3.83154 228 4.03595L227.868 72.6216C227.868 72.9136 227.741 73.135 227.487 73.2859L198.174 90.1421C198.134 90.1638 198.09 90.1749 198.045 90.1742C198 90.1736 197.956 90.1611 197.918 90.1382C197.879 90.1153 197.847 90.0827 197.825 90.0437C197.803 90.0046 197.792 89.9605 197.792 89.9158V21.4178C197.792 21.3018 197.761 21.1876 197.702 21.0865C197.643 20.9853 197.558 20.9007 197.455 20.8411L107.808 -30.6912C107.593 -30.8178 107.375 -30.8178 107.155 -30.6912L77.6151 -13.6963C77.5984 -13.6867 77.5844 -13.6729 77.5748 -13.6562C77.5651 -13.6395 77.56 -13.6206 77.56 -13.6014C77.56 -13.5821 77.5651 -13.5632 77.5748 -13.5466C77.5844 -13.5299 77.5984 -13.5161 77.6151 -13.5065Z" fill="url(#paint0_linear_1_158)" style=""/>
<path d="M47.0777 141.864L47.2317 38.8945C47.2317 38.5392 47.3856 38.4516 47.6936 38.6317L77.0212 55.4806C77.251 55.612 77.3658 55.8091 77.3658 56.072V159.202C77.3659 159.32 77.3964 159.435 77.4543 159.536C77.5122 159.637 77.5955 159.721 77.6958 159.779L107.148 176.708C107.373 176.84 107.598 176.84 107.823 176.708L137.15 159.83C137.375 159.699 137.488 159.504 137.488 159.246V125.49C137.488 125.222 137.373 125.154 137.143 125.285L107.837 142.098C107.598 142.239 107.478 142.171 107.478 141.893L107.507 108.217C107.508 108.039 107.554 107.864 107.643 107.709C107.732 107.554 107.859 107.425 108.013 107.334L137.194 90.5144C137.356 90.422 137.436 90.2808 137.436 90.091L137.605 56.0574C137.61 55.7945 137.725 55.5974 137.949 55.466L167.372 38.5806C167.408 38.5588 167.448 38.547 167.489 38.5463C167.531 38.5457 167.572 38.5563 167.608 38.5771C167.645 38.5978 167.676 38.628 167.697 38.6645C167.719 38.701 167.731 38.7426 167.732 38.785V141.718C167.732 142.059 167.881 142.144 168.179 141.974L227.487 107.933C227.731 107.792 227.853 107.862 227.853 108.144V141.886C227.853 142.207 227.714 142.451 227.435 142.616L109.458 210.472C108.858 210.818 108.177 211 107.484 211C106.79 211 106.108 210.818 105.506 210.472L-12.6041 142.536C-12.868 142.385 -13 142.159 -13 141.857V108.203C-13 107.828 -12.8363 107.736 -12.5088 107.925L46.8357 142.01C46.997 142.103 47.0777 142.054 47.0777 141.864Z" fill="url(#paint1_linear_1_158)" style=""/>
</g>
</g>
<defs>
<linearGradient id="paint0_linear_1_158" x1="107.5" y1="-65" x2="107.5" y2="211" gradientUnits="userSpaceOnUse">
<stop stop-color="#1883FC" style="stop-color:#1883FC;stop-color:color(display-p3 0.0941 0.5137 0.9882);stop-opacity:1;"/>
<stop offset="1" stop-color="white" stop-opacity="0" style="stop-color:none;stop-color:none;stop-opacity:0;"/>
</linearGradient>
<linearGradient id="paint1_linear_1_158" x1="107.5" y1="-65" x2="107.5" y2="211" gradientUnits="userSpaceOnUse">
<stop stop-color="#1883FC" style="stop-color:#1883FC;stop-color:color(display-p3 0.0941 0.5137 0.9882);stop-opacity:1;"/>
<stop offset="1" stop-color="white" stop-opacity="0" style="stop-color:none;stop-color:none;stop-opacity:0;"/>
</linearGradient>
<clipPath id="clip0_1_158">
<rect width="225" height="225" fill="white" style="fill:white;fill:white;fill-opacity:1;" transform="translate(0.5)"/>
</clipPath>
</defs>
</svg>
