<?xml version="1.0" encoding="UTF-8"?> <svg xmlns="http://www.w3.org/2000/svg" width="101" height="90" viewBox="0 0 101 90" fill="none"> <path d="M50.9697 38.7348C51.0204 38.8717 51.1283 38.9796 51.2652 39.0303L54.9603 40.3976C55.2193 40.4934 55.5069 40.3612 55.6028 40.1022L62.0552 42.4898C61.9594 42.7488 62.0917 43.0364 62.3507 43.1323L69.741 45.8669C70 45.9628 70.2876 45.8305 70.3834 45.5715L76.8359 47.9591C76.7401 48.2181 76.8723 48.5058 77.1313 48.6016L79.5592 49.5L77.1313 50.3984C76.8723 50.4942 76.7401 50.7819 76.8359 51.0409L70.3834 53.4285C70.2876 53.1695 70 53.0372 69.741 53.1331L62.3507 55.8677C62.0917 55.9636 61.9594 56.2512 62.0552 56.5102L55.6028 58.8978C55.5069 58.6388 55.2193 58.5066 54.9603 58.6024L51.2652 59.9697C51.1283 60.0204 51.0204 60.1283 50.9697 60.2652L49.6024 63.9603C49.5066 64.2193 49.6388 64.5069 49.8978 64.6028L47.5102 71.0552C47.2512 70.9594 46.9636 71.0917 46.8677 71.3507L44.1331 78.741C44.0372 79 44.1695 79.2876 44.4285 79.3834L42.0409 85.8359C41.7819 85.7401 41.4942 85.8723 41.3984 86.1313L40.5 88.5592L39.6016 86.1313C39.5058 85.8723 39.2181 85.7401 38.9591 85.8359L36.5715 79.3834C36.8305 79.2876 36.9628 79 36.8669 78.741L34.1323 71.3507C34.0364 71.0917 33.7488 70.9594 33.4898 71.0552L31.1022 64.6028C31.3612 64.5069 31.4934 64.2193 31.3976 63.9603L30.0303 60.2652C29.9796 60.1283 29.8717 60.0204 29.7348 59.9697L26.0397 58.6024C25.7807 58.5066 25.4931 58.6388 25.3972 58.8978L18.9448 56.5102C19.0406 56.2512 18.9083 55.9636 18.6493 55.8677L11.259 53.1331C11 53.0372 10.7124 53.1695 10.6166 53.4285L4.16409 51.0409C4.25992 50.7819 4.12766 50.4942 3.86868 50.3984L1.44077 49.5L3.86868 48.6016C4.12766 48.5058 4.25992 48.2181 4.16409 47.9591L10.6166 45.5715C10.7124 45.8305 11 45.9628 11.259 45.8669L18.6493 43.1323C18.9083 43.0364 19.0406 42.7488 18.9448 42.4898L25.3972 40.1022C25.4931 40.3612 25.7807 40.4934 26.0397 40.3976L29.7348 39.0303C29.8717 38.9796 29.9796 38.8717 30.0303 38.7348L31.3976 35.0397C31.4934 34.7807 31.3612 34.4931 31.1022 34.3972L33.4898 27.9448C33.7488 28.0406 34.0364 27.9083 34.1323 27.6493L36.8669 20.259C36.9628 20 36.8305 19.7124 36.5715 19.6166L38.9591 13.1641C39.2181 13.2599 39.5058 13.1277 39.6016 12.8687L40.5 10.4408L41.3984 12.8687C41.4942 13.1277 41.7819 13.2599 42.0409 13.1641L44.4285 19.6166C44.1695 19.7124 44.0372 20 44.1331 20.259L46.8677 27.6493C46.9636 27.9083 47.2512 28.0406 47.5102 27.9448L49.8978 34.3972C49.6388 34.4931 49.5066 34.7807 49.6024 35.0397L50.9697 38.7348Z" fill="#3A84F7" stroke="white" style="fill:#3A84F7;fill:color(display-p3 0.2275 0.5176 0.9686);fill-opacity:1;stroke:white;stroke:white;stroke-opacity:1;" stroke-linecap="round" stroke-linejoin="round" stroke-dasharray="8 8"></path> <path d="M85.5679 15.1367L85.6477 15.3523L85.8633 15.4321L89.6041 16.8163C89.8631 16.9121 90.1507 16.7799 90.2466 16.5209L96.7903 18.9423C96.6945 19.2012 96.8267 19.4889 97.0857 19.5847L99.5592 20.5L97.0857 21.4153C96.8267 21.5111 96.6945 21.7988 96.7903 22.0577L90.2466 24.4791C90.1507 24.2201 89.8631 24.0879 89.6041 24.1837L85.8633 25.5679L85.6477 25.6477L85.5679 25.8633L84.1837 29.6041C84.0879 29.8631 84.2201 30.1507 84.4791 30.2466L82.0577 36.7903C81.7988 36.6945 81.5111 36.8267 81.4153 37.0857L80.5 39.5592L79.5847 37.0857C79.4889 36.8267 79.2012 36.6945 78.9423 36.7903L76.5209 30.2466C76.7799 30.1507 76.9121 29.8631 76.8163 29.6041L75.4321 25.8633L75.3523 25.6477L75.1367 25.5679L71.3959 24.1837C71.1369 24.0879 70.8493 24.2201 70.7534 24.4791L64.2097 22.0577C64.3055 21.7988 64.1733 21.5111 63.9143 21.4153L61.4408 20.5L63.9143 19.5847C64.1733 19.4889 64.3055 19.2012 64.2097 18.9423L70.7534 16.5209C70.8493 16.7799 71.1369 16.9121 71.3959 16.8163L75.1367 15.4321L75.3523 15.3523L75.4321 15.1367L76.8163 11.3959C76.9121 11.1369 76.7799 10.8493 76.5209 10.7534L78.9423 4.20971C79.2012 4.30554 79.4889 4.17328 79.5847 3.9143L80.5 1.44077L81.4153 3.9143C81.5111 4.17328 81.7988 4.30554 82.0577 4.20971L84.4791 10.7534C84.2201 10.8493 84.0879 11.1369 84.1837 11.3959L85.5679 15.1367Z" stroke="#3A84F7" style="stroke:#3A84F7;stroke:color(display-p3 0.2275 0.5176 0.9686);stroke-opacity:1;" stroke-linecap="round" stroke-dasharray="8 8"></path> <path d="M68 65.4408L71.0423 73.6623L71.122 73.878L71.3377 73.9577L79.5592 77L71.3377 80.0423L71.122 80.122L71.0423 80.3377L68 88.5592L64.9577 80.3377L64.878 80.122L64.6623 80.0423L56.4408 77L64.6623 73.9577L64.878 73.878L64.9577 73.6623L68 65.4408Z" stroke="#3A84F7" style="stroke:#3A84F7;stroke:color(display-p3 0.2275 0.5176 0.9686);stroke-opacity:1;"></path> </svg> 